<svg class="icon" viewBox="0 0 1024 1024" xmlns="http://www.w3.org/2000/svg" width="200" height="200"><defs><style/></defs><path d="M1011.76 505.88A505.86 505.86 0 1 1 .04 505.86a505.86 505.86 0 0 1 1011.72.02z" fill="#F0F0F0"/><path d="M972.11 505.88a466.23 466.23 0 1 1-932.49 0 466.23 466.23 0 0 1 932.49 0z" fill="#107DDD"/><path d="M499.09 70.75a6.79 6.79 0 1 1 13.6 0v78.42a6.79 6.79 0 0 1-13.6 0V70.75zm-39.05-3.97a6.79 6.79 0 0 1 7.46 6.06l3.43 32.79a6.79 6.79 0 0 1-6.06 7.46 6.79 6.79 0 0 1-7.48-6.06L454 74.24a6.75 6.75 0 0 1 6.05-7.46zm90.63.02a6.79 6.79 0 0 0-6.1 6.06l-3.45 32.79a6.81 6.81 0 1 0 13.53 1.42l3.45-32.79a6.81 6.81 0 0 0-7.43-7.48zm-136.3 6.73a6.77 6.77 0 0 1 8.05 5.25l16.23 76.71a6.79 6.79 0 1 1-13.29 2.8l-16.25-76.7a6.79 6.79 0 0 1 5.25-8.06zm181.98-.07a6.79 6.79 0 0 0-6.7 5.39l-16.3 76.69a6.79 6.79 0 1 0 13.31 2.82l16.3-76.68a6.81 6.81 0 0 0-6.61-8.22zM369.46 86a6.75 6.75 0 0 1 8.55 4.37l10.2 31.36a6.79 6.79 0 1 1-12.94 4.21l-10.2-31.37a6.79 6.79 0 0 1 4.4-8.57zm270.23-.29a6.77 6.77 0 0 0-5.88 4.68l-10.2 31.36a6.79 6.79 0 1 0 12.94 4.21l10.2-31.36a6.79 6.79 0 0 0-7.06-8.89zm-313.3 16.34a6.72 6.72 0 0 1 8.97 3.45l31.86 71.66a6.81 6.81 0 0 1-12.43 5.52l-31.85-71.66a6.79 6.79 0 0 1 3.45-8.97zm356.9-.33a6.77 6.77 0 0 0-6.34 4.03l-31.94 71.59a6.81 6.81 0 1 0 12.42 5.54l31.94-71.59a6.79 6.79 0 0 0-6.07-9.57zm-398.15 21.82a6.81 6.81 0 0 1 9.28 2.49l16.5 28.56a6.77 6.77 0 0 1-2.5 9.28 6.79 6.79 0 0 1-9.28-2.47l-16.5-28.58a6.79 6.79 0 0 1 2.5-9.28zm437.63-.9a6.72 6.72 0 0 0-5.41 3.39l-16.5 28.56a6.77 6.77 0 0 0 2.5 9.28 6.79 6.79 0 0 0 9.28-2.47l16.47-28.58a6.79 6.79 0 0 0-6.34-10.17zm-476.39 25.54a6.9 6.9 0 0 1 3.77-1.3 6.72 6.72 0 0 1 5.74 2.81l46.03 63.47a6.76 6.76 0 0 1-1.51 9.48 6.77 6.77 0 0 1-9.48-1.51l-46.04-63.47a6.77 6.77 0 0 1 1.5-9.48zm515.72-.96a6.75 6.75 0 0 0-5.74 2.8l-46.13 63.4a6.81 6.81 0 0 0 11 8l46.12-63.4a6.75 6.75 0 0 0-1.49-9.49 6.63 6.63 0 0 0-3.76-1.3zm-551.58 30.52a6.75 6.75 0 0 1 9.6.51l22.06 24.51a6.77 6.77 0 0 1-.5 9.6 6.79 6.79 0 0 1-9.61-.5l-22.06-24.5a6.81 6.81 0 0 1 .51-9.62zm585.88-1.7a6.83 6.83 0 0 0-4.7 2.26l-22.07 24.5a6.77 6.77 0 0 0 .5 9.6 6.75 6.75 0 0 0 9.6-.49l22.08-24.5a6.77 6.77 0 0 0-.5-9.6 6.75 6.75 0 0 0-4.9-1.76zm-618.96 34.18a6.9 6.9 0 0 1 4.7-2.25v.02a6.63 6.63 0 0 1 4.9 1.74l58.27 52.45a6.79 6.79 0 1 1-9.1 10.1l-58.26-52.44a6.81 6.81 0 0 1-.5-9.62zm652.4-2a6.63 6.63 0 0 0-4.9 1.73l-58.3 52.43a6.81 6.81 0 0 0 9.08 10.1l58.3-52.42a6.77 6.77 0 0 0-4.18-11.84zm-681.12 38.15a6.81 6.81 0 0 1 5.73-2.8 6.99 6.99 0 0 1 3.76 1.31l26.69 19.39a6.75 6.75 0 0 1 1.49 9.48 6.77 6.77 0 0 1-9.48 1.52l-26.7-19.4a6.77 6.77 0 0 1-1.49-9.5zm708.8-2.54a6.79 6.79 0 0 0-3.77 1.3l-26.7 19.36a6.79 6.79 0 1 0 7.98 11l26.69-19.37a6.75 6.75 0 0 0 1.51-9.48 6.68 6.68 0 0 0-5.72-2.8zm-734.35 41.1a6.75 6.75 0 0 1 9.28-2.47l67.9 39.2a6.79 6.79 0 1 1-6.8 11.77l-67.89-39.22a6.77 6.77 0 0 1-2.5-9.28zm760-3.39a6.79 6.79 0 0 0-3.87.92l-67.9 39.2a6.79 6.79 0 1 0 6.8 11.77l67.92-39.22a6.79 6.79 0 0 0-2.94-12.67zm-780.48 44.5a6.72 6.72 0 0 1 8.97-3.43l30.12 13.43a6.81 6.81 0 0 1-5.54 12.42L106.12 335a6.77 6.77 0 0 1-3.43-8.97zm800.19-3.74c-.9 0-1.78.2-2.65.58l-30.12 13.42a6.77 6.77 0 0 0-3.45 8.98 6.77 6.77 0 0 0 8.97 3.45l30.14-13.43a6.81 6.81 0 0 0-2.9-13zM85.7 368.97a6.77 6.77 0 0 1 8.57-4.36l74.56 24.31a6.79 6.79 0 1 1-4.21 12.91l-74.55-24.29a6.79 6.79 0 0 1-4.37-8.57zm834.59-4.38a6.99 6.99 0 0 0-2.7.31l-74.57 24.24a6.81 6.81 0 0 0 4.2 12.94l74.58-24.25a6.79 6.79 0 0 0-1.51-13.24zm-846.25 49.5a6.79 6.79 0 0 1 6.7-5.38c.45 0 .91.04 1.36.16l32.25 6.85a6.77 6.77 0 1 1-2.82 13.3l-32.26-6.86a6.79 6.79 0 0 1-5.23-8.06zm857.02-5.31a9.97 9.97 0 0 0-1.38.13l-32.26 6.86a6.77 6.77 0 0 0-5.23 8.05 6.77 6.77 0 0 0 8.06 5.26l32.26-6.86a6.77 6.77 0 0 0 5.23-8.06 6.75 6.75 0 0 0-6.68-5.38zM66.4 459.42a6.83 6.83 0 0 1 7.48-6.03l77.98 8.23a6.77 6.77 0 0 1 6.04 7.48 6.75 6.75 0 0 1-7.46 6.04l-77.98-8.24a6.81 6.81 0 0 1-6.06-7.48zm872.94-5.45a4.79 4.79 0 0 0-1.38 0l-78 8.12a6.81 6.81 0 0 0 1.42 13.54l77.98-8.15a6.79 6.79 0 0 0-.02-13.51zM64.4 505.87a6.77 6.77 0 0 1 6.79-6.78h32.97a6.78 6.78 0 0 1 6.81 6.79 6.78 6.78 0 0 1-6.81 6.81H71.19a6.79 6.79 0 0 1-6.79-6.81zm843.2-6.78a6.77 6.77 0 0 0-6.8 6.79 6.78 6.78 0 0 0 6.8 6.81h32.99a6.79 6.79 0 0 0 6.79-6.81 6.77 6.77 0 0 0-6.8-6.8H907.6zm-757.2 37.06a6.77 6.77 0 0 1 7.45 6.06 6.77 6.77 0 0 1-6.05 7.46l-77.98 8.14a6.77 6.77 0 0 1-7.46-6.05 6.75 6.75 0 0 1 6.05-7.46l77.98-8.15zm709.56.47a6.81 6.81 0 0 0-.04 13.54l77.95 8.23a6.77 6.77 0 0 0 7.48-6.03 6.77 6.77 0 0 0-6.03-7.48l-77.98-8.24a5.74 5.74 0 0 0-1.38-.02zM111.53 582.7a6.77 6.77 0 0 1 8.06 5.23 6.79 6.79 0 0 1-5.24 8.06l-32.25 6.86a6.77 6.77 0 1 1-2.83-13.3l32.26-6.85zm787.34-.09a6.79 6.79 0 0 0-1.47 13.45l32.28 6.85a6.79 6.79 0 1 0 2.8-13.29l-32.25-6.85a5.65 5.65 0 0 0-1.36-.16zm-734.34 27.1a6.75 6.75 0 0 1 8.57 4.36 6.77 6.77 0 0 1-4.36 8.57l-74.55 24.24a6.81 6.81 0 0 1-4.21-12.93l74.55-24.25zm679.94-.07a6.79 6.79 0 0 0-1.52 13.22l74.55 24.3a6.81 6.81 0 0 0 4.21-12.93l-74.55-24.28a6.59 6.59 0 0 0-2.7-.31zm-708.34 53.42a6.72 6.72 0 0 1 8.97 3.45 6.77 6.77 0 0 1-3.43 8.97l-30.14 13.43a6.79 6.79 0 1 1-5.52-12.42l30.12-13.43zm736.76-.33a6.79 6.79 0 0 0-2.9 13.02l30.13 13.42a6.79 6.79 0 1 0 5.52-12.42l-30.12-13.42a6.83 6.83 0 0 0-2.63-.6zm-679.33 15.63a6.81 6.81 0 0 1 6.79 11.77l-67.9 39.2a6.79 6.79 0 1 1-6.79-11.75l67.9-39.22zm620.79-.9a6.79 6.79 0 0 0-2.94 12.67l67.9 39.2a6.81 6.81 0 1 0 6.8-11.75l-67.91-39.22a6.83 6.83 0 0 0-3.85-.9zM176.73 736.3a6.81 6.81 0 0 1 8 11l-26.7 19.36a6.79 6.79 0 1 1-8-11l26.7-19.36zm654.38-1.07a6.77 6.77 0 0 0-4.23 12.29l26.7 19.39a6.79 6.79 0 1 0 7.98-11l-26.69-19.39a6.79 6.79 0 0 0-3.76-1.29zm-595.06 4.08a6.81 6.81 0 0 1 9.6.5 6.77 6.77 0 0 1-.51 9.6l-58.3 52.43a6.77 6.77 0 0 1-9.6-.52 6.77 6.77 0 0 1 .5-9.59l58.31-52.42zm534.6-1.54a6.81 6.81 0 0 0-4.19 11.84l58.26 52.45a6.81 6.81 0 0 0 9.1-10.1l-58.27-52.45a6.63 6.63 0 0 0-4.9-1.74zm-480.12 52.58a6.88 6.88 0 0 1 5.74-2.8 6.77 6.77 0 0 1 5.25 10.81l-46.12 63.4a6.81 6.81 0 1 1-11-8.01l46.13-63.4zm424.58-2.52a6.77 6.77 0 0 0-3.76 1.32 6.77 6.77 0 0 0-1.52 9.48l46.06 63.47a6.81 6.81 0 0 0 11-8l-46.04-63.46a6.83 6.83 0 0 0-5.74-2.8zm-483.08 12.05a6.88 6.88 0 0 1 4.7-2.25 6.81 6.81 0 0 1 5.4 11.35l-22.06 24.51a6.77 6.77 0 0 1-9.6.5 6.77 6.77 0 0 1-.5-9.6l22.06-24.51zm542.96-2.2a6.77 6.77 0 0 0-5.4 11.32l22.07 24.51a6.77 6.77 0 1 0 10.09-9.08l-22.06-24.5a6.75 6.75 0 0 0-4.7-2.26zm-420.64 31.2a6.77 6.77 0 0 1 8.97-3.42 6.77 6.77 0 0 1 3.45 8.97l-31.94 71.61a6.81 6.81 0 0 1-12.43-5.54l31.95-71.62zm296.31-3.83a6.77 6.77 0 0 0-6.1 9.55l31.84 71.66a6.81 6.81 0 0 0 12.44-5.52l-31.85-71.66a6.75 6.75 0 0 0-6.33-4.03zM299.14 850.4a6.7 6.7 0 0 1 5.41-3.39 6.79 6.79 0 0 1 6.37 10.18l-16.5 28.56a6.79 6.79 0 1 1-11.77-6.8l16.5-28.55zM707.23 847a6.77 6.77 0 0 0-6.37 10.18l16.5 28.56a6.79 6.79 0 1 0 11.75-6.8l-16.47-28.55a6.72 6.72 0 0 0-5.41-3.39zm-282.11 6.4a6.77 6.77 0 0 1 6.67-5.37 6.79 6.79 0 0 1 6.62 8.19l-16.3 76.71a6.79 6.79 0 1 1-13.29-2.83l16.3-76.7zm154.6-5.33a6.79 6.79 0 0 0-6.61 8.2l16.25 76.7a6.79 6.79 0 1 0 13.29-2.82l-16.23-76.7a6.79 6.79 0 0 0-6.7-5.38zm-80.63 14.54a6.79 6.79 0 1 1 13.6 0V941a6.79 6.79 0 0 1-13.6 0v-78.4zM381.1 881.13a6.79 6.79 0 0 0-5.88 4.67l-10.2 31.4a6.77 6.77 0 0 0 4.37 8.54 6.77 6.77 0 0 0 8.57-4.36l10.2-31.37a6.81 6.81 0 0 0-7.06-8.88zm246.82.33a6.79 6.79 0 0 1 8.55 4.37l10.2 31.36a6.79 6.79 0 1 1-12.94 4.21l-10.2-31.37a6.79 6.79 0 0 1 4.4-8.57zm-164.7 17.17a6.79 6.79 0 0 0-6.1 6.05l-3.45 32.8a6.77 6.77 0 0 0 6.05 7.47 6.77 6.77 0 0 0 7.46-6.05l3.45-32.8a6.79 6.79 0 0 0-7.41-7.47zm83.68.04a6.79 6.79 0 0 1 7.45 6.06l3.43 32.79a6.81 6.81 0 1 1-13.51 1.42l-3.43-32.81a6.75 6.75 0 0 1 6.06-7.46z" fill="#F4F2F3"/><path d="M824.48 233.98l-371.9 216.09-235.14 370.18 344-254.8z" opacity=".41"/><path d="M559.17 561.69L452.6 450.07l378.14-254.4z" fill="#FF5150"/><path d="M559.17 561.69l-106.6-111.64-271.54 366.03z" fill="#F1F1F1"/><path d="M181.03 816.08l378.14-254.4 271.56-366z" opacity=".24"/></svg>